<svg width="21" height="20" viewBox="0 0 21 20" fill="none" xmlns="http://www.w3.org/2000/svg">
<path d="M15 11.6666C15.2526 11.6666 15.4948 11.5663 15.6734 11.3877C15.852 11.2091 15.9524 10.9668 15.9524 10.7142C15.9524 10.4616 15.852 10.2194 15.6734 10.0408C15.4948 9.86218 15.2526 9.76184 15 9.76184C14.7474 9.76184 14.5052 9.86218 14.3266 10.0408C14.148 10.2194 14.0476 10.4616 14.0476 10.7142C14.0476 10.9668 14.148 11.2091 14.3266 11.3877C14.5052 11.5663 14.7474 11.6666 15 11.6666ZM15 15.4761C15.2526 15.4761 15.4948 15.3758 15.6734 15.1972C15.852 15.0186 15.9524 14.7763 15.9524 14.5237C15.9524 14.2712 15.852 14.0289 15.6734 13.8503C15.4948 13.6717 15.2526 13.5714 15 13.5714C14.7474 13.5714 14.5052 13.6717 14.3266 13.8503C14.148 14.0289 14.0476 14.2712 14.0476 14.5237C14.0476 14.7763 14.148 15.0186 14.3266 15.1972C14.5052 15.3758 14.7474 15.4761 15 15.4761ZM11.1905 10.7142C11.1905 10.9668 11.0901 11.2091 10.9115 11.3877C10.7329 11.5663 10.4907 11.6666 10.2381 11.6666C9.9855 11.6666 9.74326 11.5663 9.56465 11.3877C9.38605 11.2091 9.28571 10.9668 9.28571 10.7142C9.28571 10.4616 9.38605 10.2194 9.56465 10.0408C9.74326 9.86218 9.9855 9.76184 10.2381 9.76184C10.4907 9.76184 10.7329 9.86218 10.9115 10.0408C11.0901 10.2194 11.1905 10.4616 11.1905 10.7142ZM11.1905 14.5237C11.1905 14.7763 11.0901 15.0186 10.9115 15.1972C10.7329 15.3758 10.4907 15.4761 10.2381 15.4761C9.9855 15.4761 9.74326 15.3758 9.56465 15.1972C9.38605 15.0186 9.28571 14.7763 9.28571 14.5237C9.28571 14.2712 9.38605 14.0289 9.56465 13.8503C9.74326 13.6717 9.9855 13.5714 10.2381 13.5714C10.4907 13.5714 10.7329 13.6717 10.9115 13.8503C11.0901 14.0289 11.1905 14.2712 11.1905 14.5237ZM5.47618 11.6666C5.72877 11.6666 5.97101 11.5663 6.14962 11.3877C6.32823 11.2091 6.42857 10.9668 6.42857 10.7142C6.42857 10.4616 6.32823 10.2194 6.14962 10.0408C5.97101 9.86218 5.72877 9.76184 5.47618 9.76184C5.2236 9.76184 4.98136 9.86218 4.80275 10.0408C4.62414 10.2194 4.5238 10.4616 4.5238 10.7142C4.5238 10.9668 4.62414 11.2091 4.80275 11.3877C4.98136 11.5663 5.2236 11.6666 5.47618 11.6666ZM5.47618 15.4761C5.72877 15.4761 5.97101 15.3758 6.14962 15.1972C6.32823 15.0186 6.42857 14.7763 6.42857 14.5237C6.42857 14.2712 6.32823 14.0289 6.14962 13.8503C5.97101 13.6717 5.72877 13.5714 5.47618 13.5714C5.2236 13.5714 4.98136 13.6717 4.80275 13.8503C4.62414 14.0289 4.5238 14.2712 4.5238 14.5237C4.5238 14.7763 4.62414 15.0186 4.80275 15.1972C4.98136 15.3758 5.2236 15.4761 5.47618 15.4761Z" fill="#4942E4"/>
<path fill-rule="evenodd" clip-rule="evenodd" d="M5.47619 0C5.66563 0 5.84731 0.0752549 5.98127 0.209209C6.11522 0.343164 6.19048 0.524845 6.19048 0.714286V1.44095C6.82095 1.42857 7.51524 1.42857 8.27905 1.42857H12.1962C12.961 1.42857 13.6552 1.42857 14.2857 1.44095V0.714286C14.2857 0.524845 14.361 0.343164 14.4949 0.209209C14.6289 0.0752549 14.8106 0 15 0C15.1894 0 15.3711 0.0752549 15.5051 0.209209C15.639 0.343164 15.7143 0.524845 15.7143 0.714286V1.5019C15.9619 1.52095 16.1962 1.54476 16.4181 1.57429C17.5343 1.72476 18.4381 2.04095 19.1514 2.75333C19.8638 3.46667 20.18 4.37048 20.3305 5.48667C20.4762 6.57238 20.4762 7.9581 20.4762 9.70857V11.72C20.4762 13.4705 20.4762 14.8571 20.3305 15.9419C20.18 17.0581 19.8638 17.9619 19.1514 18.6752C18.4381 19.3876 17.5343 19.7038 16.4181 19.8543C15.3324 20 13.9467 20 12.1962 20H8.28C6.52952 20 5.14286 20 4.0581 19.8543C2.9419 19.7038 2.0381 19.3876 1.32476 18.6752C0.612381 17.9619 0.29619 17.0581 0.145714 15.9419C0 14.8562 0 13.4705 0 11.72V9.70857C0 7.9581 0 6.57143 0.145714 5.48667C0.29619 4.37048 0.612381 3.46667 1.32476 2.75333C2.0381 2.04095 2.9419 1.72476 4.0581 1.57429C4.28 1.54476 4.51524 1.52095 4.7619 1.5019V0.714286C4.7619 0.524845 4.83716 0.343164 4.97111 0.209209C5.10507 0.0752549 5.28675 0 5.47619 0ZM4.24762 2.99048C3.29048 3.11905 2.7381 3.36095 2.33524 3.76381C1.93238 4.16667 1.69048 4.71905 1.5619 5.67714C1.54 5.83905 1.5219 6.01048 1.50667 6.19048H18.9695C18.9543 6.00952 18.9362 5.83905 18.9143 5.67619C18.7857 4.71905 18.5438 4.16667 18.141 3.76381C17.7381 3.36095 17.1857 3.11905 16.2276 2.99048C15.2495 2.85905 13.959 2.85714 12.1429 2.85714H8.33333C6.51714 2.85714 5.22762 2.85905 4.24762 2.99048ZM1.42857 9.7619C1.42857 8.94857 1.42857 8.24095 1.44095 7.61905H19.0352C19.0476 8.24095 19.0476 8.94857 19.0476 9.7619V11.6667C19.0476 13.4829 19.0457 14.7733 18.9143 15.7524C18.7857 16.7095 18.5438 17.2619 18.141 17.6648C17.7381 18.0676 17.1857 18.3095 16.2276 18.4381C15.2495 18.5695 13.959 18.5714 12.1429 18.5714H8.33333C6.51714 18.5714 5.22762 18.5695 4.24762 18.4381C3.29048 18.3095 2.7381 18.0676 2.33524 17.6648C1.93238 17.2619 1.69048 16.7095 1.5619 15.7514C1.43048 14.7733 1.42857 13.4829 1.42857 11.6667V9.7619Z" fill="#4942E4"/>
</svg>
