<svg width="12" height="10" viewBox="0 0 12 10" fill="none" xmlns="http://www.w3.org/2000/svg">
<path d="M10.8 0H1.2C0.54 0 0.00599999 0.552273 0.00599999 1.22727L0 8.59091C0 9.26591 0.54 9.81818 1.2 9.81818H10.8C11.46 9.81818 12 9.26591 12 8.59091V1.22727C12 0.552273 11.46 0 10.8 0ZM10.56 2.60795L6.318 5.32023C6.126 5.44295 5.874 5.44295 5.682 5.32023L1.44 2.60795C1.37984 2.57341 1.32715 2.52675 1.28513 2.47078C1.24312 2.41481 1.21264 2.3507 1.19555 2.28234C1.17845 2.21398 1.1751 2.14278 1.18569 2.07305C1.19629 2.00333 1.2206 1.93652 1.25717 1.87668C1.29374 1.81685 1.34179 1.76522 1.39844 1.72493C1.45508 1.68464 1.51912 1.65652 1.5867 1.64227C1.65427 1.62803 1.72397 1.62796 1.79157 1.64206C1.85918 1.65616 1.92328 1.68415 1.98 1.72432L6 4.29545L10.02 1.72432C10.0767 1.68415 10.1408 1.65616 10.2084 1.64206C10.276 1.62796 10.3457 1.62803 10.4133 1.64227C10.4809 1.65652 10.5449 1.68464 10.6016 1.72493C10.6582 1.76522 10.7063 1.81685 10.7428 1.87668C10.7794 1.93652 10.8037 2.00333 10.8143 2.07305C10.8249 2.14278 10.8215 2.21398 10.8045 2.28234C10.7874 2.3507 10.7569 2.41481 10.7149 2.47078C10.6728 2.52675 10.6202 2.57341 10.56 2.60795Z" fill="#1E1E1E"/>
</svg>
